<?xml version="1.0" standalone="no"?>
<!DOCTYPE svg PUBLIC "-//W3C//DTD SVG 20010904//EN"
 "http://www.w3.org/TR/2001/REC-SVG-20010904/DTD/svg10.dtd">
<svg version="1.0" xmlns="http://www.w3.org/2000/svg"
 width="300.000000pt" height="300.000000pt" viewBox="0 0 300.000000 300.000000"
 preserveAspectRatio="xMidYMid meet">
<metadata>
Created by potrace 1.10, written by Peter Selinger 2001-2011
</metadata>
<g transform="translate(0.000000,300.000000) scale(0.100000,-0.100000)"
fill="#000000" stroke="none">
<path d="M1400 2556 c-182 -39 -302 -218 -269 -401 13 -73 51 -146 97 -186
l33 -29 -35 -34 c-20 -18 -42 -48 -50 -67 -20 -49 -60 -292 -53 -320 4 -13 18
-36 32 -51 32 -35 32 -41 -7 -61 -128 -67 -151 -92 -151 -161 0 -30 6 -53 18
-66 18 -20 18 -20 -64 -20 -97 0 -134 15 -150 61 -25 71 -22 74 82 74 94 0
124 12 71 30 -16 5 -31 11 -33 12 -3 2 14 19 37 38 22 20 51 56 63 80 20 40
24 43 42 32 83 -51 90 -41 17 24 -53 47 -83 59 -95 40 -3 -6 -42 -37 -86 -70
-44 -34 -73 -61 -64 -61 25 0 56 21 116 78 42 41 58 50 62 39 10 -25 -12 -85
-44 -122 -28 -32 -164 -107 -174 -96 -3 2 -5 103 -5 223 l0 218 88 1 c48 1 98
4 112 8 29 8 34 36 7 36 -12 0 -24 13 -32 32 -14 33 -41 53 -72 53 -10 0 -26
13 -35 30 -9 16 -28 32 -43 36 -32 8 -27 37 16 77 29 26 32 27 148 27 l119 0
7 -29 c6 -30 71 -108 81 -98 4 3 -8 23 -25 44 -17 21 -39 56 -49 77 l-19 40
-119 -3 c-76 -2 -128 -7 -145 -16 -30 -16 -55 -50 -65 -89 -3 -14 -10 -26 -15
-26 -15 0 -10 39 12 81 31 62 77 79 217 79 86 0 113 3 110 13 -3 8 -32 13 -84
15 -162 7 -227 -16 -271 -93 -13 -22 -23 -56 -23 -76 0 -20 -5 -50 -11 -68 -9
-25 -17 -31 -38 -31 -28 0 -53 -20 -64 -53 -4 -9 -20 -20 -37 -24 -17 -3 -29
-11 -27 -17 5 -15 43 -24 114 -25 l62 -1 3 -292 c3 -288 3 -294 26 -326 45
-62 63 -66 317 -72 l230 -5 3 -42 3 -43 -258 0 c-220 0 -262 -2 -281 -16 -13
-9 -52 -54 -87 -101 -57 -76 -65 -91 -65 -130 0 -61 22 -97 73 -122 44 -21 47
-21 819 -19 861 3 804 -1 848 71 37 60 28 99 -46 199 -37 49 -79 95 -95 103
-22 12 -79 15 -279 15 l-251 0 3 41 3 41 200 -1 c155 -1 212 2 252 14 60 18
107 65 123 124 6 25 10 158 10 348 l-1 308 76 6 c80 7 112 22 85 40 -8 5 -25
8 -38 6 -17 -3 -27 3 -38 24 -16 32 -42 49 -73 49 -16 0 -21 6 -21 29 0 37
-36 90 -80 115 -30 18 -56 22 -172 24 -121 3 -138 2 -138 -12 0 -14 16 -16
114 -16 136 0 162 -5 201 -35 39 -32 27 -41 -21 -17 -30 15 -70 21 -171 26
l-131 7 -12 -36 c-6 -19 -29 -58 -51 -85 -25 -32 -34 -50 -25 -50 19 0 62 52
77 95 l13 35 133 0 c120 0 159 -8 118 -24 -8 -3 -20 -17 -27 -31 -6 -14 -19
-25 -28 -25 -26 0 -70 -39 -70 -61 0 -10 -7 -19 -15 -19 -8 0 -15 -4 -15 -9 0
-23 35 -33 125 -35 l95 -1 0 -318 0 -319 -29 -29 c-28 -27 -34 -29 -109 -29
-44 0 -88 -3 -97 -6 -14 -6 -13 -1 4 32 24 45 26 79 6 114 -19 33 -18 40 3 40
24 0 62 43 86 98 l19 42 29 -19 c17 -10 30 -22 30 -26 0 -5 -19 -19 -43 -33
-63 -35 -109 -72 -109 -88 0 -22 15 -17 56 21 21 20 60 46 86 58 57 27 66 44
36 66 -13 8 -39 30 -59 48 -20 18 -43 33 -52 33 -8 0 -42 -22 -74 -48 -32 -27
-67 -54 -78 -60 -20 -11 -20 -11 1 -12 23 0 87 46 121 88 29 37 38 23 23 -37
-9 -37 -22 -59 -56 -91 -42 -39 -46 -41 -63 -26 -10 9 -22 16 -27 16 -5 0 -26
16 -47 35 l-38 35 21 39 c25 51 25 61 -5 214 -31 156 -37 172 -80 212 l-34 32
44 48 c183 196 69 525 -199 574 -69 13 -65 13 -136 -3z m186 -47 c70 -27 137
-87 171 -154 34 -65 42 -173 20 -240 -21 -59 -82 -143 -110 -151 -35 -8 -97
22 -97 48 0 17 3 19 12 10 7 -7 20 -12 29 -12 32 0 31 -1 41 210 3 56 0 70
-21 98 -13 17 -30 32 -37 32 -8 0 -14 9 -14 20 0 11 -4 20 -10 20 -5 0 -10 9
-10 20 0 11 -8 24 -17 27 -10 4 -24 15 -31 25 -17 24 -59 23 -74 -2 -7 -11
-18 -20 -25 -20 -7 0 -15 -11 -19 -25 -3 -14 -10 -25 -15 -25 -5 0 -9 -9 -9
-19 0 -12 -9 -21 -25 -25 -15 -4 -31 -18 -37 -34 -13 -32 -16 -82 -5 -89 4 -3
3 -11 -4 -19 -9 -11 -9 -24 1 -59 7 -24 9 -56 6 -70 -12 -49 30 -85 62 -53 9
9 12 9 12 -3 0 -19 -24 -41 -63 -57 -25 -11 -30 -9 -67 29 -66 68 -85 119 -85
229 0 92 1 98 35 154 37 62 103 117 167 141 58 21 153 18 219 -6z m-32 -259
c54 -20 41 -157 -21 -219 -28 -28 -38 -33 -66 -27 -41 8 -82 55 -96 111 -28
111 -6 145 93 145 36 0 76 -4 90 -10z m-208 -122 c11 -83 11 -81 -3 -85 -9 -3
-12 7 -11 34 1 21 -2 58 -7 82 -5 30 -5 42 2 38 6 -4 15 -35 19 -69z m275 18
c-6 -24 -8 -58 -5 -75 4 -19 2 -31 -4 -31 -18 0 -20 13 -10 75 11 73 17 90 25
82 3 -4 1 -26 -6 -51z m581 -133 c24 -22 23 -33 -9 -61 l-28 -23 25 7 c14 4
45 7 70 8 38 1 46 -3 57 -24 12 -25 12 -25 -45 -31 -66 -7 -272 1 -272 10 0 4
7 17 16 30 15 20 22 22 63 16 44 -7 45 -6 30 12 -42 47 44 100 93 56z m-766
-28 c36 -19 42 -19 78 0 16 9 31 13 34 10 3 -2 0 -30 -7 -62 -22 -110 -76
-188 -156 -224 -57 -26 -63 -24 -76 24 -7 23 -18 48 -25 56 -11 12 -12 6 -7
-36 7 -66 -22 -182 -49 -192 -28 -10 110 -116 154 -117 81 -3 89 -4 83 -14 -3
-5 -20 -10 -38 -10 -42 0 -23 -18 23 -21 56 -4 90 0 90 11 0 6 -11 10 -25 10
-34 0 -32 20 3 22 67 3 122 -11 122 -32 0 -12 -124 -50 -164 -50 -67 0 -202
53 -274 107 -59 45 -60 56 -16 283 21 105 38 129 117 169 37 18 75 44 85 57 9
13 18 24 18 24 1 0 15 -7 30 -15z m172 -47 c28 -28 3 -171 -46 -261 -15 -28
-46 -66 -69 -86 -24 -19 -46 -44 -49 -54 -5 -17 -7 -17 -30 -2 -14 9 -34 13
-47 10 -15 -4 -28 -1 -36 9 -14 17 -7 51 8 41 21 -13 102 19 145 57 65 56 99
134 100 225 1 75 4 81 24 61z m-786 -15 c23 -21 23 -36 -2 -58 -27 -24 -19
-29 23 -14 44 16 81 6 95 -26 7 -14 12 -28 12 -30 0 -3 -74 -5 -165 -5 -173 0
-182 3 -152 44 14 19 38 22 82 11 25 -6 28 -5 18 6 -20 20 -15 56 9 73 29 21
57 20 80 -1z m881 -41 c34 -36 49 -81 76 -227 21 -113 21 -122 6 -158 l-16
-38 -26 21 c-14 11 -35 20 -46 20 -15 0 -8 -8 26 -31 26 -17 49 -35 53 -40 11
-19 -23 -7 -60 21 -22 17 -48 30 -59 30 -35 0 70 -67 147 -94 14 -5 16 -10 9
-17 -18 -18 -102 17 -151 60 l-42 39 35 31 c40 34 79 40 94 14 6 -10 11 -13
11 -6 0 24 -13 43 -31 43 -23 0 -24 4 -2 37 25 38 25 167 0 208 -10 17 -16 22
-13 13 24 -80 26 -102 17 -153 -10 -53 -36 -104 -55 -105 -4 0 -5 8 -1 18 15
33 35 116 30 120 -7 7 -8 5 -39 -75 -29 -75 -63 -134 -82 -140 -19 -6 -3 49
22 79 38 46 66 136 71 229 4 52 2 89 -4 92 -6 4 -12 -25 -16 -73 -7 -82 -36
-186 -65 -226 -13 -18 -23 -22 -44 -18 -14 3 -29 0 -33 -6 -3 -5 -11 -7 -17
-4 -5 3 6 20 26 36 61 50 116 183 116 280 0 40 3 48 18 48 10 0 30 -12 45 -28z
m-152 -70 c-11 -37 -34 -86 -51 -108 -47 -65 -154 -106 -188 -72 -19 19 -14
25 25 33 91 17 178 94 208 186 26 76 31 43 6 -39z m674 -283 c0 -357 -3 -372
-76 -409 -37 -19 -63 -20 -666 -20 -700 0 -672 -3 -720 69 -23 33 -23 40 -23
312 0 179 4 279 10 279 6 0 10 -94 10 -262 0 -295 4 -315 70 -350 33 -17 73
-18 655 -18 604 0 621 1 653 20 59 36 62 56 62 396 0 240 3 305 13 301 9 -3
12 -75 12 -318z m-926 6 c1 -17 -1 -17 -13 -5 -10 10 -12 25 -8 45 l6 30 7
-25 c4 -14 7 -34 8 -45z m191 -24 c17 -33 12 -51 -15 -51 -26 0 -32 19 -19 54
8 21 21 20 34 -3z m58 -5 c4 -17 -14 -46 -28 -46 -6 0 -7 51 -1 68 3 10 26 -7
29 -22z m-178 -7 c7 -11 9 -23 7 -26 -7 -6 -46 19 -51 34 -9 22 32 15 44 -8z
m64 -16 c4 -9 4 -18 1 -21 -7 -8 -35 19 -35 34 0 17 27 7 34 -13z m-184 -93
c0 -5 -12 -10 -26 -10 -14 0 -34 -5 -45 -11 -12 -6 -28 -7 -37 -4 -14 6 -11
10 13 21 36 16 95 18 95 4z m105 -39 c8 -13 -54 -31 -90 -26 -16 2 -41 4 -54
4 -20 1 -21 3 -11 16 14 17 145 22 155 6z m401 -4 c12 -11 1 -16 -62 -28 -32
-6 -90 -24 -128 -40 -37 -16 -72 -29 -76 -29 -7 0 7 66 17 79 15 21 230 37
249 18z m-615 -16 c-20 -13 2 -22 70 -28 83 -8 60 -28 -31 -28 -68 0 -87 -7
-54 -19 41 -16 106 -5 174 29 38 19 73 35 77 35 4 0 -9 -16 -28 -36 -53 -55
-123 -88 -192 -88 l-58 -1 32 -13 c72 -30 190 20 254 108 41 56 61 65 50 23
-9 -36 -46 -85 -92 -120 -33 -25 -46 -28 -130 -31 -52 -2 -105 -1 -119 2 -41
11 -64 42 -64 86 0 55 34 90 87 90 25 0 33 -3 24 -9z m754 -16 c19 -18 25 -35
25 -65 0 -30 -6 -47 -25 -65 -22 -23 -31 -25 -127 -25 -88 0 -111 3 -148 23
-45 23 -70 50 -57 64 5 4 20 0 35 -10 51 -32 115 -59 151 -64 47 -6 131 27
149 58 12 20 12 21 0 8 -24 -29 -89 -51 -133 -44 -51 8 -145 54 -145 72 0 17
19 17 63 -2 41 -17 134 -20 157 -5 11 7 2 10 -31 10 -56 0 -109 10 -109 20 0
4 23 10 50 13 60 7 78 16 59 28 -9 6 -1 9 24 9 27 0 45 -7 62 -25z m-425 -56
c-14 -51 -59 -99 -94 -99 -24 0 -22 3 24 50 28 27 50 53 50 59 0 5 5 22 12 38
16 41 22 6 8 -48z m83 -64 c33 -33 34 -35 12 -35 -32 0 -70 33 -62 53 9 23 10
22 50 -18z m79 -187 l-4 -28 -148 0 -148 0 -4 25 c-3 13 -4 26 -2 27 1 2 72 3
156 3 l154 0 -4 -27z m540 -69 c26 -12 149 -170 142 -181 -3 -5 -284 -8 -624
-8 l-619 0 8 23 8 22 422 3 c331 2 422 5 418 15 -6 18 -1188 18 -1194 0 -4
-10 33 -13 161 -13 169 0 180 -3 158 -37 -10 -16 -389 -20 -404 -5 -7 7 10 37
56 95 37 47 72 88 79 90 26 11 1366 7 1389 -4z m142 -251 c-31 -60 -2 -58
-834 -58 -656 0 -765 2 -790 15 -26 13 -60 50 -60 65 0 3 382 5 849 5 l849 0
-14 -27z"/>
<path d="M1725 2091 c-3 -12 -23 -43 -42 -69 -30 -39 -31 -43 -8 -22 28 26 70
98 62 107 -3 2 -8 -5 -12 -16z"/>
<path d="M1385 2210 c-3 -6 4 -10 18 -10 14 0 31 -7 38 -16 12 -15 10 -16 -24
-12 -41 4 -48 -5 -17 -22 24 -13 60 2 60 25 0 32 -59 60 -75 35z"/>
<path d="M1506 2204 c-9 -8 -16 -19 -16 -24 0 -11 29 -40 40 -40 4 0 18 9 31
19 l24 20 -45 -6 c-41 -6 -44 -5 -31 10 7 10 25 17 40 17 20 0 23 2 11 10 -21
14 -36 12 -54 -6z"/>
<path d="M1447 2073 c-4 -3 2 -13 13 -20 17 -12 22 -12 35 0 8 8 11 17 8 21
-8 8 -48 8 -56 -1z"/>
<path d="M1492 1621 c-18 -16 -54 -36 -80 -44 -26 -9 -38 -16 -28 -16 28 -1
99 35 126 64 31 33 23 31 -18 -4z"/>
<path d="M1982 898 c-19 -23 -4 -28 90 -28 72 0 88 3 88 15 0 8 -1 15 -2 15
-2 1 -39 3 -83 6 -63 5 -84 3 -93 -8z"/>
<path d="M797 893 c-4 -3 -7 -10 -7 -15 0 -4 250 -8 556 -8 440 0 555 3 552
13 -4 9 -124 13 -550 15 -299 1 -548 -1 -551 -5z"/>
<path d="M2022 813 c3 -16 15 -18 93 -18 73 0 90 3 90 15 0 12 -18 16 -93 18
-85 3 -93 1 -90 -15z"/>
<path d="M2063 674 c-7 -18 11 -39 26 -30 17 11 13 46 -4 46 -9 0 -18 -7 -22
-16z"/>
<path d="M2130 670 c0 -11 6 -20 14 -20 21 0 31 21 15 31 -22 14 -29 11 -29
-11z"/>
<path d="M713 674 c9 -9 1267 -12 1297 -3 14 4 -274 8 -639 8 -365 1 -662 -2
-658 -5z"/>
<path d="M940 1992 c-25 -9 -30 -26 -13 -44 18 -21 120 -25 154 -8 21 12 25
35 7 46 -14 9 -127 14 -148 6z m145 -27 c0 -10 -129 -19 -153 -10 -7 3 -10 10
-7 15 9 14 160 9 160 -5z"/>
<path d="M1870 1900 c-7 -4 -9 -13 -6 -19 10 -16 56 -14 56 3 0 16 -33 27 -50
16z"/>
<path d="M1052 1793 c4 -22 43 -25 43 -3 0 8 -11 16 -23 18 -19 3 -23 0 -20
-15z"/>
<path d="M1966 1773 c7 -27 -12 -39 -33 -21 -14 11 -15 11 -11 -2 6 -20 38
-19 52 2 8 13 7 21 -1 29 -9 9 -11 7 -7 -8z"/>
<path d="M2124 1369 c-10 -12 -44 -34 -74 -50 l-55 -28 83 -1 c82 0 101 9 62
30 -19 10 -19 12 -4 36 21 32 13 41 -12 13z"/>
<path d="M831 1238 c8 -9 33 -12 77 -10 83 5 63 22 -26 22 -50 0 -60 -3 -51
-12z"/>
<path d="M1985 1240 c-4 -6 23 -10 74 -10 44 0 83 5 86 10 4 6 -23 10 -74 10
-44 0 -83 -4 -86 -10z"/>
<path d="M898 1193 c18 -2 45 -2 60 0 15 2 0 4 -33 4 -33 0 -45 -2 -27 -4z"/>
<path d="M1986 1190 c7 -7 29 -7 65 -1 l54 9 -64 1 c-44 1 -62 -2 -55 -9z"/>
<path d="M2338 579 c-21 -22 -19 -23 16 -9 14 5 26 14 26 20 0 16 -23 10 -42
-11z"/>
<path d="M1138 513 c18 -2 45 -2 60 0 15 2 0 4 -33 4 -33 0 -45 -2 -27 -4z"/>
<path d="M1480 510 l-205 -6 218 -2 c119 -1 217 0 217 2 0 10 -38 11 -230 6z"/>
<path d="M1720 513 c0 -5 30 -7 67 -5 119 5 131 9 31 10 -54 1 -98 -1 -98 -5z"/>
</g>
</svg>
